<?xml version="1.0" encoding="UTF-8"?>
<svg version="1.1" xmlns="http://www.w3.org/2000/svg" width="32" height="32">
<path d="M0 0 C0.66 0.99 1.32 1.98 2 3 C2.33 2.34 2.66 1.68 3 1 C4.65 1 6.3 1 8 1 C8.33 1.99 8.66 2.98 9 4 C9.66 3.01 10.32 2.02 11 1 C12.32 1 13.64 1 15 1 C14.45861974 6.30552651 13.14745884 10.20420049 11 15 C7.93696422 15.08115993 4.87609185 15.14057409 1.8125 15.1875 C0.94818359 15.21263672 0.08386719 15.23777344 -0.80664062 15.26367188 C-5.65727516 15.31942629 -9.13599286 15.30647505 -13 12 C-14.25276086 8.39831252 -14.29995148 6.7104114 -12.8125 3.1875 C-11 1 -11 1 -9.25 0.1875 C-6.10317683 -0.07473526 -3.15656025 -0.23381928 0 0 Z M-7 5 C-7.66 6.32 -8.32 7.64 -9 9 C-7.87465895 10.35618499 -7.87465895 10.35618499 -4.9375 10.0625 C-3.968125 10.041875 -2.99875 10.02125 -2 10 C-2.66 8.35 -3.32 6.7 -4 5 C-4.99 5 -5.98 5 -7 5 Z M5 9 C6 12 6 12 6 12 Z " fill="#253344" transform="translate(15,6)"/>
<path d="M0 0 C10.56 0 21.12 0 32 0 C32 1.32 32 2.64 32 4 C21.44 4 10.88 4 0 4 C0 2.68 0 1.36 0 0 Z " fill="#6E6E6E" transform="translate(0,22)"/>
<path d="M0 0 C0 0.99 0 1.98 0 3 C-2.64 3 -5.28 3 -8 3 C-8 2.34 -8 1.68 -8 1 C-5.29120665 -0.35439668 -2.99066732 -0.06501451 0 0 Z " fill="#C53133" transform="translate(26,18)"/>
</svg>
